Coordinates
version=1
nRows=13
nColumns=63
inDegrees=yes

Units are S.I. units (second, meters, Newtons, ...)
If the header above contains a line with 'inDegrees', this indicates whether rotational values are in degrees (yes) or radians (no).

endheader
time	pelvis_tilt	pelvis_list	pelvis_rotation	pelvis_tx	pelvis_ty	pelvis_tz	hip_flexion_r	hip_adduction_r	hip_rotation_r	knee_angle_r	knee_angle_r_beta	ankle_angle_r	subtalar_angle_r	mtp_angle_r	hip_flexion_l	hip_adduction_l	hip_rotation_l	knee_angle_l	knee_angle_l_beta	ankle_angle_l	subtalar_angle_l	mtp_angle_l	L5_S1_Flex_Ext	L5_S1_Lat_Bending	L5_S1_axial_rotation	L4_L5_Flex_Ext	L4_L5_Lat_Bending	L4_L5_axial_rotation	L3_L4_Flex_Ext	L3_L4_Lat_Bending	L3_L4_axial_rotation	L2_L3_Flex_Ext	L2_L3_Lat_Bending	L2_L3_axial_rotation	L1_L2_Flex_Ext	L1_L2_Lat_Bending	L1_L2_axial_rotation	L1_T12_Flex_Ext	L1_T12_Lat_Bending	L1_T12_axial_rotation	Abs_r3	Abs_r2	Abs_r1	Abs_t1	Abs_t2	neck_flexion	neck_bending	neck_rotation	arm_flex_r	arm_add_r	arm_rot_r	elbow_flex_r	pro_sup_r	wrist_flex_r	wrist_dev_r	arm_flex_l	arm_add_l	arm_rot_l	elbow_flex_l	pro_sup_l	wrist_flex_l	wrist_dev_l
0.000000	-0.449847	-5.749438	93.097971	0.139512	0.997988	0.448033	-0.022397	0.686650	14.934491	0.263275	0.004595	22.374750	-12.872481	0.000000	-0.050643	-1.587299	-12.145958	4.527987	0.079028	30.484725	-3.976385	0.000000	-0.083375	-0.240343	1.181928	-0.154836	-0.319657	1.255799	-0.136977	-0.584371	1.255799	-0.095290	-0.584371	1.034187	-0.077422	-0.490108	0.960317	-0.047641	-0.372292	0.886446	-0.595541	-2.718811	6.573529	0.000000	0.000000	25.361809	1.172564	-1.358276	19.033894	-7.633656	67.159354	45.474766	95.434474	-6.653610	-13.414432	19.509363	-5.771315	81.545803	37.636176	91.748843	-1.780857	-4.334004
0.025641	-0.194157	-5.610821	93.406386	0.138239	0.997410	0.445189	-0.291535	0.917887	13.542807	0.264582	0.004618	23.279696	-10.886619	0.000000	-0.007010	-1.966947	-12.948872	5.273807	0.092045	31.598508	-2.348391	0.000000	-0.038931	-0.192925	1.145142	-0.072299	-0.256590	1.216714	-0.063960	-0.469077	1.216714	-0.044494	-0.469077	1.002000	-0.036151	-0.393412	0.930428	-0.022245	-0.298841	0.858857	-0.278080	-2.182404	6.368939	0.000000	0.000000	25.620188	1.487782	-0.166711	18.245393	-6.567107	70.601073	45.659929	88.732387	-2.808720	-13.398430	19.889572	-4.570392	84.593246	36.350780	89.007701	0.923520	-6.371975
0.051282	-0.029701	-5.508068	93.690881	0.137121	0.997077	0.443293	-0.490022	1.054940	12.423325	0.266098	0.004644	23.945729	-9.407555	0.000000	0.058319	-2.223880	-13.578348	5.851830	0.102134	32.442221	-0.961634	0.000000	-0.008977	-0.158502	1.106561	-0.016671	-0.210807	1.175722	-0.014748	-0.385381	1.175722	-0.010260	-0.385381	0.968241	-0.008336	-0.323216	0.899081	-0.005129	-0.245519	0.829921	-0.064121	-1.793001	6.154363	0.000000	0.000000	25.806852	1.688022	0.615977	17.518993	-5.905951	72.123947	45.982967	84.314509	0.384050	-13.182517	20.020060	-3.828872	86.015809	35.692083	86.989953	3.113464	-7.970303
0.076923	0.055188	-5.438913	93.952453	0.136142	0.996945	0.442243	-0.623779	1.109767	11.553108	0.267786	0.004674	24.396541	-8.386550	0.000000	0.141100	-2.372024	-14.036724	6.273575	0.109495	33.040865	0.187234	0.000000	0.008286	-0.135322	1.067027	0.015387	-0.179979	1.133716	0.013613	-0.329023	1.133716	0.009470	-0.329023	0.933648	0.007694	-0.275949	0.866959	0.004734	-0.209614	0.800270	0.059184	-1.530793	5.934483	0.000000	0.000000	25.931913	1.784451	1.049081	16.850525	-5.620084	72.006070	46.383102	81.826062	2.965675	-12.794560	19.930627	-3.505932	86.005240	35.558932	85.604798	4.814045	-9.163315
0.102564	0.072178	-5.401089	94.192097	0.135287	0.996973	0.441933	-0.698728	1.094330	10.909218	0.269612	0.004706	24.655824	-7.774865	0.000000	0.237092	-2.425309	-14.326340	6.550561	0.114329	33.419440	1.101555	0.000000	0.014656	-0.121636	1.027380	0.027218	-0.161776	1.091591	0.024078	-0.295745	1.091591	0.016750	-0.295745	0.898958	0.013610	-0.248040	0.834746	0.008374	-0.188414	0.770535	0.104686	-1.375969	5.713980	0.000000	0.000000	26.005485	1.788230	1.191898	16.235817	-5.679402	70.525533	46.799558	80.912265	4.977130	-12.262425	19.651074	-3.560748	84.753282	35.850172	84.761434	6.050332	-9.985338
0.128205	0.032938	-5.392327	94.410811	0.134539	0.997116	0.442261	-0.720789	1.020588	10.468717	0.271539	0.004739	24.747268	-7.523761	0.000000	0.342050	-2.397661	-14.449533	6.694306	0.116838	33.602948	1.784677	0.000000	0.011933	-0.115691	0.988463	0.022160	-0.153869	1.050242	0.019604	-0.281291	1.050242	0.013638	-0.281291	0.864905	0.011081	-0.235917	0.803127	0.006818	-0.179205	0.741348	0.085234	-1.308719	5.497537	0.000000	0.000000	26.037680	1.710526	1.103721	15.670701	-6.053803	67.960430	47.171557	81.218339	6.459389	-11.613981	19.211203	-3.952496	82.451680	36.464651	84.369060	6.847395	-10.470699
0.153846	-0.050865	-5.410362	94.609590	0.133885	0.997331	0.443121	-0.695886	0.900502	10.208668	0.273531	0.004774	24.694567	-7.584500	0.000000	0.451732	-2.303010	-14.408643	6.716330	0.117222	33.616391	2.239943	0.000000	0.001915	-0.115736	0.951118	0.003556	-0.153929	1.010563	0.003146	-0.281401	1.010563	0.002188	-0.281401	0.832228	0.001778	-0.236010	0.772784	0.001094	-0.179276	0.713339	0.013676	-1.309233	5.289835	0.000000	0.000000	26.038612	1.562502	0.843845	15.151005	-6.713180	64.588853	47.438322	82.389506	7.453430	-10.877094	18.640814	-4.640353	79.292181	37.301212	84.336875	7.230304	-10.653724
0.179487	-0.167561	-5.452925	94.789430	0.133307	0.997575	0.444411	-0.629938	0.746032	10.106133	0.275552	0.004809	24.521411	-7.908341	0.000000	0.561896	-2.155284	-14.206008	6.628151	0.115683	33.484771	2.470700	0.000000	-0.013599	-0.120021	0.916187	-0.025255	-0.159628	0.973448	-0.022342	-0.291819	0.973448	-0.015542	-0.291819	0.801663	-0.012628	-0.244747	0.744402	-0.007771	-0.185913	0.687140	-0.097137	-1.357701	5.095555	0.000000	0.000000	26.018394	1.355322	0.471565	14.672560	-7.627432	60.688896	47.539076	84.070985	8.000226	-10.079633	17.969707	-5.583495	75.466528	38.258704	84.574079	7.224129	-10.568740
0.205128	-0.305484	-5.517749	94.951330	0.132790	0.997804	0.446026	-0.528867	0.569137	10.138174	0.277567	0.004844	24.251492	-8.446547	0.000000	0.668297	-1.968410	-13.843967	6.441288	0.112422	33.233088	2.480291	0.000000	-0.032810	-0.126794	0.884510	-0.060931	-0.168635	0.939792	-0.053903	-0.308286	0.939792	-0.037498	-0.308286	0.773946	-0.030467	-0.258557	0.718664	-0.018747	-0.196403	0.663383	-0.234356	-1.434314	4.919380	0.000000	0.000000	25.987138	1.100150	0.046176	14.231195	-8.766453	56.538650	47.413042	85.907998	8.140753	-9.249464	17.227685	-6.741098	71.166467	39.235970	84.989869	6.853940	-10.250075
0.230769	-0.452965	-5.602568	95.096284	0.132320	0.997976	0.447862	-0.398595	0.381779	10.281853	0.279540	0.004879	23.908501	-9.150378	0.000000	0.766694	-1.756316	-13.324859	6.167261	0.107639	32.886345	2.272063	0.000000	-0.053918	-0.134303	0.856931	-0.100132	-0.178623	0.910489	-0.088582	-0.326544	0.910489	-0.061623	-0.326544	0.749814	-0.050068	-0.273870	0.696256	-0.030809	-0.208035	0.642698	-0.385133	-1.519260	4.765990	0.000000	0.000000	25.954958	0.808152	-0.373027	13.822741	-10.100141	52.416208	46.999443	87.545764	7.915987	-8.414454	16.444546	-8.072339	66.583743	40.131858	85.493445	6.144806	-9.732055
0.256410	-0.598336	-5.705113	95.225289	0.131879	0.998047	0.449815	-0.245043	0.195917	10.514233	0.281434	0.004912	23.516131	-9.971095	0.000000	0.852843	-1.532931	-12.651022	5.817588	0.101536	32.469542	1.849361	0.000000	-0.075126	-0.140798	0.834290	-0.139516	-0.187261	0.886433	-0.123424	-0.342335	0.886433	-0.085861	-0.342335	0.730003	-0.069762	-0.287114	0.677860	-0.042927	-0.218095	0.625717	-0.536617	-1.592730	4.640069	0.000000	0.000000	25.931966	0.490490	-0.726750	13.443028	-11.598390	48.599664	46.237502	88.629506	7.366903	-7.602472	15.650094	-9.536395	61.910101	40.845213	85.994005	5.121797	-9.049008
0.282051	-0.679866	-5.850353	95.332501	0.131345	0.997743	0.451618	-0.041563	0.065724	10.738214	0.282912	0.004938	23.226696	-10.641587	0.000000	0.929642	-1.356480	-11.749678	5.397971	0.094212	32.033849	1.081185	0.000000	-0.086733	-0.135109	0.835203	-0.161072	-0.179695	0.887404	-0.142494	-0.328503	0.887404	-0.099127	-0.328503	0.730803	-0.080540	-0.275514	0.678603	-0.049559	-0.209283	0.626403	-0.619526	-1.528377	4.645150	0.000000	0.000000	26.053660	0.040293	-0.842004	13.188996	-13.231344	47.715809	44.285447	85.799255	6.828017	-7.259847	14.761899	-11.241145	52.730745	41.520655	89.504079	3.599652	-8.221778
0.307692	-0.713220	-6.020427	95.425345	0.130761	0.997124	0.453261	0.186554	-0.019418	11.057649	0.280971	0.004904	22.904487	-11.432899	0.000000	0.987893	-1.210743	-10.551001	4.909780	0.085692	31.575501	-0.053297	0.000000	-0.091315	-0.120404	0.843783	-0.169581	-0.160137	0.896519	-0.150021	-0.292749	0.896519	-0.104364	-0.292749	0.738310	-0.084795	-0.245527	0.685574	-0.052177	-0.186505	0.632837	-0.652254	-1.362029	4.692867	0.000000	0.000000	26.177907	-0.411192	-0.659148	12.922648	-15.091630	47.465158	41.787444	81.445676	5.946406	-6.752389	14.112677	-12.864162	46.841601	41.138934	90.629837	1.812754	-7.404129
